<svg xmlns="http://www.w3.org/2000/svg" xmlns:xlink="http://www.w3.org/1999/xlink" width="488.234" height="298.6" viewBox="0 0 488.234 298.6"><defs><style>.a{opacity:0.1;}.b{fill:#34240c;}.c{fill:url(#a);}.d{fill:#ffd9b6;}.e{fill:#1c0f03;}.f{fill:#ffd1c1;}.g{fill:url(#b);}.h{fill:#ff8a5b;}.i{opacity:0.32;fill:url(#c);}.j{fill:#ffb74b;}.k{fill:#f8f2fa;}.l{fill:url(#d);}.m{fill:url(#e);}.n{fill:url(#f);}</style><linearGradient id="a" x1="-117.035" y1="-6.138" x2="-117.035" y2="-7.147" gradientUnits="objectBoundingBox"><stop offset="0" stop-color="#ffd1c1"/><stop offset="0.386" stop-color="#ffcfbe"/><stop offset="0.588" stop-color="#ffc8b6"/><stop offset="0.747" stop-color="#ffbda9"/><stop offset="0.883" stop-color="#ffad96"/><stop offset="1" stop-color="#ff9a7f"/></linearGradient><linearGradient id="b" x1="-762.507" y1="26.012" x2="-763.564" y2="25.684" xlink:href="#a"/><linearGradient id="c" x1="0.078" y1="0.256" x2="1.325" y2="0.248" gradientUnits="objectBoundingBox"><stop offset="0" stop-opacity="0"/><stop offset="1"/></linearGradient><linearGradient id="d" x1="-282.671" y1="-42.393" x2="-282.78" y2="-43.268" xlink:href="#a"/><linearGradient id="e" x1="0.5" y1="0.54" x2="0.5" y2="0.959" gradientUnits="objectBoundingBox"><stop offset="0" stop-color="#f9fbfc"/><stop offset="0.025" stop-color="#f5f8fc"/><stop offset="0.197" stop-color="#dee8fd"/><stop offset="0.361" stop-color="#d1defe"/><stop offset="0.509" stop-color="#cddbff"/></linearGradient><linearGradient id="f" x1="0.5" y1="0.689" x2="0.5" y2="1.487" xlink:href="#e"/></defs><path class="a" d="M647.729,220.347c0,8.877-109.294,16.071-244.115,16.071S159.5,229.224,159.5,220.347s109.3-16.074,244.118-16.074S647.729,211.47,647.729,220.347Z" transform="translate(-159.496 62.181)"/><g transform="translate(19.718)"><g transform="translate(0 37.038)"><path class="b" d="M236.174,156.248a380.629,380.629,0,0,1,46.251,44.582c6.956,7.981,27.847,41.037,34.218,49.514,12.058,16.049,6.416,15.794-15.147,27.3a23.774,23.774,0,0,1-8.79,2.674c-36.2,3.682-52.919-43.762-63.8-69.273-4.721-11.078-9.829-24.769-13.848-36.125C218.193,154.685,221.274,144.336,236.174,156.248Z" transform="translate(-79.179 -61.371)"/><path class="b" d="M220.56,221.948c18.581-10.641,39.46-17.192,59.945-23.1,10.174-2.935,48.959-7.914,59.332-10.107,19.639-4.153,17.029.854,18.354,25.262a23.735,23.735,0,0,1-1.288,9.1c-11.952,34.372-62.017,29.488-89.736,28.575-12.036-.4-26.6-1.549-38.592-2.7C211.551,237.588,220.56,221.948,220.56,221.948Z" transform="translate(-73.563 -5.175)"/><g transform="translate(62.102 94.586)"><path class="c" d="M266.4,230.685a25.353,25.353,0,0,0-.862-5.441c-.109-.51-.843-5.438-.787-5.976.818-7.8,5.279-29.018,5.279-29.018l-21.384-3.369s.386,18.989-4.2,29.46l.025.006c-10.23,3.893-28.147,8.488-28.147,8.488s-19.563.356-20.63.647a17.882,17.882,0,0,0-6.867,2.82s-2.943,4.618,20.4,11.826c0,0,9.995,3.769,26.926,3.557l10.893.613c3.724.21,14.836,1.448,16.433.591a4.234,4.234,0,0,0,1.369-1.1C267.274,240.693,266.345,234.4,266.4,230.685Z" transform="translate(-188.713 -100.755)"/><path class="d" d="M213.486,193.835c.26,1.218.468,2.453.633,3.694.582-1.1,1.148-2.21,1.7-3.327Z" transform="translate(-144.113 -88.235)"/><path class="e" d="M265.541,203.812c-.064-.294-.336-2.069-.543-3.615-.882.325-1.753.627-2.6.91-9.793,3.265-19.6,1.372-29.06-2.106-.176-.067-.342-.14-.507-.216-8.412,2.543-16.5,4.615-16.5,4.615s-19.563.358-20.63.65a17.882,17.882,0,0,0-6.867,2.82s-2.943,4.618,20.4,11.826c0,0,9.995,3.769,26.926,3.557l10.893.613c3.724.21,14.836,1.448,16.433.591a4.234,4.234,0,0,0,1.369-1.1c2.425-3.094,1.5-9.384,1.554-13.1A25.353,25.353,0,0,0,265.541,203.812Z" transform="translate(-188.713 -79.323)"/><path class="b" d="M235.6,156.263l-.174-.006a18.458,18.458,0,0,0-18.9,16.713c-2.274,23.68-5.48,58.752-7.3,78.755L231.25,255.9A418.643,418.643,0,0,0,246,195.357a324.419,324.419,0,0,0,3.271-32.588c.062-1.663-2.672-4.528-2.585-6.351C242.191,155.779,240.452,156.412,235.6,156.263Z" transform="translate(-151.79 -156.126)"/></g><path class="f" d="M239.336,137.022l4.079,12.345-7.115,2.35Z" transform="translate(-40.937 -95.934)"/><path class="f" d="M245.085,151.065c.227,4.027,1.218,27.732,1.218,27.732,2.635,2.568,14.486,2.674,19.138-1.9,3.7-3.643,3.893-6.679,3.893-6.679l-4.061-34.422Z" transform="translate(-25.121 -98.149)"/><path class="f" d="M278.767,126.494l2.224,12.212,3.394,18.631.952,5.24c-10.434,21.272-30.1,24.923-37.044,18.611s-12.77-44.932-12.77-44.932Z" transform="translate(-42.336 -114.889)"/><path class="e" d="M287.482,188.3s-17.522-30.751-22.42-33.05-20.336,2.63-29.656-9.258c-9.2-11.734-4.688-18.539-1.467-19.4s10.249,10.8,20.541,2.758c10.471-8.183,32.963-9.885,37.083-1.364,0,0,14.184.364,12.571,19.79s-5.7,35.96-10.291,37.744Z" transform="translate(-52.373 -122.35)"/><path class="g" d="M251.643,134.291c5.144,3.528,5.783,14.8-3.111,21.709L243.3,137.822C243.587,134.935,248.261,131.969,251.643,134.291Z" transform="translate(-28.332 -102.352)"/><path class="h" d="M284.266,148.625c-13.372,1.568-34.4,5.494-38.279,20.916-2.064,8.216-1.775,17-.3,25.3,1.159,6.505,2.224,13.027,2.991,19.6,1.3,11.1,2.854,23.6-.188,34.548l-12.535,22.966S296.817,298.8,327,263.239c0,0-1.915-88.568-16.06-109.313-1.719-2.523-6.035-3.649-8.74-4.318A49.917,49.917,0,0,0,284.266,148.625Z" transform="translate(-41.556 -75.739)"/><path class="i" d="M277.085,153.924c-1.719-2.523-6.035-3.649-8.74-4.318a48.182,48.182,0,0,0-13.587-1.322V281.42c13.425-1.081,27.441-5.282,38.388-18.183C293.146,263.237,291.23,174.669,277.085,153.924Z" transform="translate(-7.705 -75.737)"/><g transform="translate(115.04 77.042)"><path class="f" d="M213.948,160.384s1.442,11.454,8.155,19.132,14.377,10.72,20.67,18.833c4.945,6.377,54.148,53.577,59.158,36.371.655-2.257-.157-4.654-1.047-6.827-8.351-20.345-28.69-28.953-46.467-39.656l-6.746-4.511s-2.926-11.591-10.045-17.981Z" transform="translate(-196.219 -130.916)"/><path class="j" d="M223.12,150.824l-14.789,16.732a2.848,2.848,0,0,0,.221,4l30.045,27.2a2.844,2.844,0,0,0,4.019-.2l14.509-15.985a2.846,2.846,0,0,0-.16-3.988L227.2,150.633A2.846,2.846,0,0,0,223.12,150.824Z" transform="translate(-207.617 -149.861)"/><g transform="translate(3.663 3.682)"><path class="k" d="M208.925,167.032l25.623,23.277,13.733-15.128-25.344-24Z" transform="translate(-208.925 -151.176)"/></g><path class="f" d="M220.4,182s2.246-1.364,1.322-5.626-2.884-14.33-2.884-14.33.028-3.6,1.453-2.806,4.5,3.016,5.69,9.261c0,0,1.235,5.371,2.618,6.749a18.492,18.492,0,0,1,5.648,11.064S224.121,189.73,220.4,182Z" transform="translate(-187.413 -133.177)"/><g transform="translate(88.83 24.364)"><path class="f" d="M258.331,237.752c2.067-2.767,2.372-6.679,2.509-10.809.339-10.053.832-20.087,1.277-30.129.2-4.469.395-8.944.543-13.419.308-9.143.927-22.568-11.036-24.755-2.725-.5-6.256,1.512-7.95,3.374a11.95,11.95,0,0,0-2.543,5.531c-1.031,4.649-.725,10.409-.952,14.444-.459,8.286-.773,16.6-.829,24.926-.036,5.352-.006,10.711.283,16.08.235,4.419.087,10,2.117,14.131,2.165,4.411,7.505,5.074,11.47,3.943A9.265,9.265,0,0,0,258.331,237.752Z" transform="translate(-239.338 -158.561)"/></g><path class="h" d="M271.248,211.694c-1.647-12.4.09-56.971-17.673-58.789-19.653-2.013-15.845,59.323-15.845,59.323Z" transform="translate(-153.937 -144.468)"/></g><g transform="translate(0 174.414)"><path class="l" d="M185.7,254.449a25.146,25.146,0,0,0,5.214-1.775c.484-.193,5.217-1.756,5.755-1.792,7.827-.521,29.494.266,29.494.266l-.316-21.644s-18.648,3.612-29.746.874v.028c-5.578-9.421-17.69-22.26-17.69-22.26s-4.108-10.476-4.573-11.479,2.89-3.444.165-6.239c0,0-.529-14.489-3.66,9.734,0,0-5.688,10.042-2.6,26.69q.626,5.419,1.249,10.837c.428,3.708,1.095,14.867,2.212,16.3a4.283,4.283,0,0,0,1.319,1.165C175.981,257.012,182.024,255.023,185.7,254.449Z" transform="translate(-166.023 -181.939)"/><path class="e" d="M191.323,255.409a59.915,59.915,0,0,1-.356-16.29,33.32,33.32,0,0,1,2.918-10.893c-5.032-9.412-10.423-21.423-10.423-21.423s-3.823-13.761-4.29-14.764a17.893,17.893,0,0,0-3.949-6.287s-4.909-7.569-8.04,16.654c0,0-2.016,10.49,1.073,27.139q.626,5.419,1.249,10.837c.428,3.708,1.095,14.867,2.212,16.3a4.234,4.234,0,0,0,1.319,1.162c3.458,1.865,9.5-.123,13.176-.7A24.4,24.4,0,0,0,191.323,255.409Z" transform="translate(-166.537 -184.632)"/><path class="b" d="M184.281,228.782c25.509,3.554,81.519,8.424,113.161-2.386,4.974-1.7,10.308-6.755,10.866-12.224.428-4.226-1.327-10.429-4.965-12.985-3.008-2.111-12.98-2.817-16.449-2.66-9.832.445-72.589,5.45-102.242,7.836Z" transform="translate(-134.591 -159.655)"/></g></g><g transform="translate(256.82)"><path class="m" d="M308.366,238.776a61.385,61.385,0,1,1,72.541,0h26.772a80.365,80.365,0,1,0-126.085,0Z" transform="translate(-247.393 -109.124)"/><g transform="translate(0 99.344)"><path class="n" d="M438.09,144.6H270.38a12.134,12.134,0,0,0-12.134,12.131V315.644a12.135,12.135,0,0,0,12.134,12.14H438.09a12.136,12.136,0,0,0,12.134-12.14V156.73A12.134,12.134,0,0,0,438.09,144.6Zm-70.8,84.166v45.823a6.164,6.164,0,0,1-6.164,6.164H349.861a6.162,6.162,0,0,1-6.164-6.164V228.765a24.32,24.32,0,0,1-12.84-21.347,24.9,24.9,0,0,1,23.887-24.484,24.627,24.627,0,0,1,25.377,24.624A24.328,24.328,0,0,1,367.287,228.765Z" transform="translate(-258.246 -144.599)"/></g></g></g></svg>