<svg xmlns="http://www.w3.org/2000/svg" width="1920.436" height="420.09" viewBox="0 0 1920.436 420.09"><defs><style>.a{fill:#f26421;}.b{opacity:0.71;}.c,.f{fill:rgba(0,0,0,0);stroke:#fff;stroke-miterlimit:10;}.d{fill:#f7ff00;opacity:0.14;}.e{fill:#ff0;opacity:0.1;}.f,.g{opacity:0.5;}.h,.j{fill:#fff;}.i{opacity:0.15;}.j{opacity:0.23;}.k{opacity:0.65;}.l{fill:#e1ff0d;}.m{opacity:0.49;}</style></defs><rect class="a" width="1920" height="420" transform="translate(0.435 0.09)"/><g class="b" transform="translate(361.716 325.109) rotate(90)"><path class="c" d="M-114.552,361.716V151.686A72.933,72.933,0,0,1-41.619,78.753h0a72.933,72.933,0,0,1,72.933,72.933V361.716"/><path class="c" d="M-97.66,367.973V157.944a62.37,62.37,0,0,1,62.3-62.3,62.37,62.37,0,0,1,62.3,62.3V367.973" transform="translate(-6.258 -6.258)"/><path class="c" d="M-80.768,374.231V164.2A51.723,51.723,0,0,1-29.1,112.537,51.723,51.723,0,0,1,22.561,164.2V374.231" transform="translate(-12.515 -12.515)"/><path class="c" d="M-63.876,380.488V170.459a41.077,41.077,0,0,1,41.03-41.03,41.077,41.077,0,0,1,41.03,41.03V380.488" transform="translate(-18.773 -18.773)"/><path class="c" d="M-46.984,386.746V176.717a30.429,30.429,0,0,1,30.4-30.4,30.43,30.43,0,0,1,30.4,30.4V386.746" transform="translate(-25.03 -25.03)"/></g><g transform="translate(0.435 -158.91)"><circle class="d" cx="21.559" cy="21.559" r="21.559" transform="translate(1810.423 379.684) rotate(-45)"/><path class="e" d="M444.987,0A55.38,55.38,0,0,0,500.3,55.318H750V0Z" transform="translate(1170 251)"/><path class="f" d="M361.007,0a70.628,70.628,0,0,0,70.548,70.548H750" transform="translate(1170 251)"/><g class="g" transform="translate(1170 251)"><path class="c" d="M676.913-92.09V88.991a62.881,62.881,0,0,1-62.881,62.881h0a62.88,62.88,0,0,1-62.88-62.881V-92.09"/><path class="c" d="M667.744-92.09V88.991a53.713,53.713,0,0,1-107.425,0V-92.09"/><path class="c" d="M658.575-92.09V88.991a44.544,44.544,0,0,1-89.087,0V-92.09"/><path class="c" d="M649.406-92.09V88.991a35.375,35.375,0,1,1-70.749,0V-92.09"/></g><g transform="translate(1170 251)"><circle class="h" cx="2.222" cy="2.222" r="2.222" transform="translate(703.374 32.271)"/><circle class="h" cx="2.222" cy="2.222" r="2.222" transform="translate(732.357 32.271)"/><circle class="h" cx="2.222" cy="2.222" r="2.222" transform="translate(703.374 61.001)"/><circle class="h" cx="2.222" cy="2.222" r="2.222" transform="translate(732.357 61.001)"/><path class="h" d="M707.818,91.954a2.222,2.222,0,1,1-2.222-2.223A2.222,2.222,0,0,1,707.818,91.954Z"/><path class="h" d="M736.8,91.954a2.222,2.222,0,1,1-2.222-2.223A2.222,2.222,0,0,1,736.8,91.954Z"/><path class="h" d="M707.818,120.684a2.222,2.222,0,1,1-2.222-2.222A2.222,2.222,0,0,1,707.818,120.684Z"/><path class="h" d="M736.8,120.684a2.222,2.222,0,1,1-2.222-2.222A2.222,2.222,0,0,1,736.8,120.684Z"/><circle class="h" cx="2.222" cy="2.222" r="2.222" transform="translate(703.374 147.192)"/><circle class="h" cx="2.222" cy="2.222" r="2.222" transform="translate(732.357 147.192)"/><circle class="h" cx="2.222" cy="2.222" r="2.222" transform="translate(703.374 175.923)"/><circle class="h" cx="2.222" cy="2.222" r="2.222" transform="translate(732.357 175.923)"/><path class="h" d="M707.818,206.875a2.222,2.222,0,1,1-2.222-2.222A2.222,2.222,0,0,1,707.818,206.875Z"/><path class="h" d="M736.8,206.875a2.222,2.222,0,1,1-2.222-2.222A2.222,2.222,0,0,1,736.8,206.875Z"/></g></g><g class="i" transform="translate(-333.565 -92.91)"><circle class="h" cx="15.355" cy="15.355" r="15.355" transform="translate(654.645 358.917)"/><rect class="h" width="303.069" height="15.992" transform="translate(334 366.008)"/></g><path class="j" d="M35.328,82.082a6.36,6.36,0,1,1-6.36-6.36A6.36,6.36,0,0,1,35.328,82.082Z" transform="translate(329.435 177.09)"/><g class="k" transform="translate(-94.565 -182.91)"><circle class="l" cx="2.824" cy="2.824" r="2.824" transform="translate(133.921 221.968)"/><path class="l" d="M176.4,224.792a2.824,2.824,0,1,1-2.824-2.824A2.824,2.824,0,0,1,176.4,224.792Z"/><circle class="l" cx="2.824" cy="2.824" r="2.824" transform="translate(207.588 221.968)"/><circle class="l" cx="2.824" cy="2.824" r="2.824" transform="translate(244.421 221.968)"/><circle class="l" cx="2.824" cy="2.824" r="2.824" transform="translate(133.921 258.481)"/><path class="l" d="M176.4,261.3a2.824,2.824,0,1,1-2.824-2.824A2.824,2.824,0,0,1,176.4,261.3Z"/><circle class="l" cx="2.824" cy="2.824" r="2.824" transform="translate(207.588 258.481)"/><circle class="l" cx="2.824" cy="2.824" r="2.824" transform="translate(244.421 258.481)"/><circle class="l" cx="2.824" cy="2.824" r="2.824" transform="translate(133.921 294.994)"/><path class="l" d="M176.4,297.818a2.824,2.824,0,1,1-2.824-2.824A2.824,2.824,0,0,1,176.4,297.818Z"/><circle class="l" cx="2.824" cy="2.824" r="2.824" transform="translate(207.588 294.994)"/><circle class="l" cx="2.824" cy="2.824" r="2.824" transform="translate(244.421 294.994)"/><circle class="l" cx="2.824" cy="2.824" r="2.824" transform="translate(133.921 331.507)"/><path class="l" d="M176.4,334.331a2.824,2.824,0,1,1-2.824-2.824A2.824,2.824,0,0,1,176.4,334.331Z"/><circle class="l" cx="2.824" cy="2.824" r="2.824" transform="translate(207.588 331.507)"/><circle class="l" cx="2.824" cy="2.824" r="2.824" transform="translate(244.421 331.507)"/></g><g class="m" transform="translate(1405.586 57.395)"><ellipse class="c" cx="26.055" cy="26.055" rx="26.055" ry="26.055" transform="translate(172.944 11.521) rotate(80.706)"/><ellipse class="h" cx="26.055" cy="26.055" rx="26.055" ry="26.055" transform="translate(150.891 30.149) rotate(76.867)"/><g transform="translate(0)"><rect class="h" width="2.07" height="2.07" transform="translate(0 25.026)"/><rect class="h" width="2.07" height="2.07" transform="translate(0 12.513)"/><rect class="h" width="2.07" height="2.07" transform="translate(0 0)"/><rect class="h" width="2.07" height="2.07" transform="translate(11.329 25.026)"/><rect class="h" width="2.07" height="2.07" transform="translate(11.329 12.513)"/><rect class="h" width="2.07" height="2.07" transform="translate(11.329 0)"/><rect class="h" width="2.07" height="2.07" transform="translate(22.659 25.026)"/><rect class="h" width="2.07" height="2.07" transform="translate(22.659 12.513)"/><rect class="h" width="2.07" height="2.07" transform="translate(22.659 0)"/><rect class="h" width="2.07" height="2.07" transform="translate(33.988 25.026)"/><rect class="h" width="2.07" height="2.07" transform="translate(33.988 12.513)"/><rect class="h" width="2.07" height="2.07" transform="translate(33.988 0)"/><rect class="h" width="2.07" height="2.07" transform="translate(45.317 25.026)"/><rect class="h" width="2.07" height="2.07" transform="translate(45.317 12.513)"/><rect class="h" width="2.07" height="2.07" transform="translate(45.317 0)"/><rect class="h" width="2.07" height="2.07" transform="translate(56.646 25.026)"/><rect class="h" width="2.07" height="2.07" transform="translate(56.646 12.513)"/><rect class="h" width="2.07" height="2.07" transform="translate(56.646 0)"/><rect class="h" width="2.07" height="2.07" transform="translate(67.976 25.026)"/><rect class="h" width="2.07" height="2.07" transform="translate(67.976 12.513)"/><rect class="h" width="2.07" height="2.07" transform="translate(67.976 0)"/><rect class="h" width="2.07" height="2.07" transform="translate(79.305 25.026)"/><rect class="h" width="2.07" height="2.07" transform="translate(79.305 12.513)"/><rect class="h" width="2.07" height="2.07" transform="translate(79.305 0)"/><rect class="h" width="2.07" height="2.07" transform="translate(90.634 25.026)"/><rect class="h" width="2.07" height="2.07" transform="translate(90.634 12.513)"/><rect class="h" width="2.07" height="2.07" transform="translate(90.634 0)"/><rect class="h" width="2.07" height="2.07" transform="translate(101.964 25.026)"/><rect class="h" width="2.07" height="2.07" transform="translate(101.964 12.513)"/><rect class="h" width="2.07" height="2.07" transform="translate(101.964 0)"/><rect class="h" width="2.07" height="2.07" transform="translate(113.293 25.026)"/><rect class="h" width="2.07" height="2.07" transform="translate(113.293 12.513)"/><rect class="h" width="2.07" height="2.07" transform="translate(113.293 0)"/></g></g></svg>