<svg xmlns="http://www.w3.org/2000/svg" width="48" height="48" viewBox="0 0 48 48"><defs><style>.a{fill:#f26421;}</style></defs><g transform="translate(25.017)"><path class="a" d="M291.192,0h-7.4A7.8,7.8,0,0,0,276,7.791v7.4a7.8,7.8,0,0,0,7.791,7.791h7.4a7.8,7.8,0,0,0,7.791-7.791v-7.4A7.8,7.8,0,0,0,291.192,0Zm3.9,15.192a3.9,3.9,0,0,1-3.9,3.9h-7.4a3.9,3.9,0,0,1-3.9-3.9v-7.4a3.9,3.9,0,0,1,3.9-3.9h7.4a3.9,3.9,0,0,1,3.9,3.9Z" transform="translate(-276)"/></g><path class="a" d="M15.192,0h-7.4A7.8,7.8,0,0,0,0,7.791v7.4a7.8,7.8,0,0,0,7.791,7.791h7.4a7.8,7.8,0,0,0,7.791-7.791v-7.4A7.8,7.8,0,0,0,15.192,0Zm3.9,15.192a3.9,3.9,0,0,1-3.9,3.9h-7.4a3.9,3.9,0,0,1-3.9-3.9v-7.4a3.9,3.9,0,0,1,3.9-3.9h7.4a3.9,3.9,0,0,1,3.9,3.9Z"/><g transform="translate(0 25.017)"><path class="a" d="M15.192,276h-7.4A7.8,7.8,0,0,0,0,283.791v7.4a7.8,7.8,0,0,0,7.791,7.791h7.4a7.8,7.8,0,0,0,7.791-7.791v-7.4A7.8,7.8,0,0,0,15.192,276Zm3.9,15.192a3.9,3.9,0,0,1-3.9,3.9h-7.4a3.9,3.9,0,0,1-3.9-3.9v-7.4a3.9,3.9,0,0,1,3.9-3.9h7.4a3.9,3.9,0,0,1,3.9,3.9Z" transform="translate(0 -276)"/></g><g transform="translate(25.017 25.017)"><path class="a" d="M297.035,289.244a1.948,1.948,0,0,0-1.948,1.948,3.9,3.9,0,0,1-3.9,3.9h-7.4a3.9,3.9,0,0,1-3.9-3.9v-7.4a3.9,3.9,0,0,1,3.9-3.9h7.4a3.9,3.9,0,0,1,3.572,2.337,1.948,1.948,0,1,0,3.569-1.561A7.794,7.794,0,0,0,291.192,276h-7.4A7.8,7.8,0,0,0,276,283.791v7.4a7.8,7.8,0,0,0,7.791,7.791h7.4a7.8,7.8,0,0,0,7.791-7.791A1.948,1.948,0,0,0,297.035,289.244Z" transform="translate(-276 -276)"/></g></svg>