<svg xmlns="http://www.w3.org/2000/svg" width="47" height="47" viewBox="0 0 47 47"><defs><style>.a{fill:#f26421;}</style></defs><path class="a" d="M42.594,0H4.406A4.406,4.406,0,0,0,0,4.406V42.594A4.406,4.406,0,0,0,4.406,47H42.594A4.406,4.406,0,0,0,47,42.594V4.406A4.406,4.406,0,0,0,42.594,0Zm1.469,42.594a1.469,1.469,0,0,1-1.469,1.469H4.406a1.469,1.469,0,0,1-1.469-1.469V4.406A1.469,1.469,0,0,1,4.406,2.938H42.594a1.469,1.469,0,0,1,1.469,1.469Z"/><path class="a" d="M104.349,243.617a1.394,1.394,0,0,0-2.037,0l-3.323,3.5-6.2-6.526a1.394,1.394,0,0,0-2.037,0L80.638,251.238a1.579,1.579,0,0,0,.02,2.151,1.409,1.409,0,0,0,.991.435h28.9A1.484,1.484,0,0,0,112,252.311a1.563,1.563,0,0,0-.427-1.089Z" transform="translate(-72.597 -218.41)"/><circle class="a" cx="4.5" cy="4.5" r="4.5" transform="translate(23.943 12.142)"/></svg>